<svg width="24" height="15" viewBox="0 0 24 15" fill="none" xmlns="http://www.w3.org/2000/svg">
<g id="Group 33536">
<path id="Vector" d="M12.0009 10.5C13.6578 10.5 15.0009 9.15685 15.0009 7.5C15.0009 5.84315 13.6578 4.5 12.0009 4.5C10.3441 4.5 9.00092 5.84315 9.00092 7.5C9.00092 9.15685 10.3441 10.5 12.0009 10.5Z" fill="#72E4F9"/>
<path id="Vector_2" d="M23.009 6.68438C21.7687 4.76625 20.1595 3.13688 18.3557 1.97203C16.3602 0.682032 14.1571 0 11.9849 0C9.99181 0 8.03197 0.569531 6.15978 1.69266C4.25056 2.83781 2.52087 4.51078 1.01853 6.66469C0.848929 6.90811 0.755523 7.19646 0.750182 7.49309C0.74484 7.78973 0.827803 8.08125 0.98853 8.33063C2.2265 10.268 3.81978 11.8997 5.5954 13.0486C7.59462 14.3438 9.74619 15 11.9849 15C14.1745 15 16.3823 14.3236 18.3693 13.0444C20.1721 11.8833 21.7781 10.2478 23.0137 8.31375C23.1689 8.07017 23.2509 7.78719 23.2501 7.49838C23.2493 7.20956 23.1656 6.92705 23.009 6.68438ZM12.0009 12C11.1109 12 10.2408 11.7361 9.50081 11.2416C8.76079 10.7471 8.18401 10.0443 7.84342 9.22208C7.50282 8.39981 7.41371 7.49501 7.58734 6.62209C7.76097 5.74918 8.18956 4.94736 8.81889 4.31802C9.44823 3.68868 10.2501 3.2601 11.123 3.08647C11.9959 2.91283 12.9007 3.00195 13.7229 3.34254C14.5452 3.68314 15.248 4.25991 15.7425 4.99993C16.237 5.73995 16.5009 6.60998 16.5009 7.5C16.4995 8.69306 16.025 9.83685 15.1813 10.6805C14.3377 11.5241 13.1939 11.9986 12.0009 12Z" fill="#72E4F9"/>
</g>
</svg>
