<svg width="8" height="9" viewBox="0 0 8 9" fill="none" xmlns="http://www.w3.org/2000/svg">
<g id="Vector">
<path d="M6.60732 8.5L1.39195 8.5C0.32381 8.5 -0.346504 7.22883 0.187567 6.21429L1.49005 3.7376L2.79798 1.26091C3.33205 0.246363 4.66723 0.246363 5.2013 1.26091L6.50923 3.7376L7.81171 6.21429C8.34578 7.22883 7.68092 8.5 6.60732 8.5Z" fill="#0ED2F6"/>
<path d="M6.60732 8.5L1.39195 8.5C0.32381 8.5 -0.346504 7.22883 0.187567 6.21429L1.49005 3.7376L2.79798 1.26091C3.33205 0.246363 4.66723 0.246363 5.2013 1.26091L6.50923 3.7376L7.81171 6.21429C8.34578 7.22883 7.68092 8.5 6.60732 8.5Z" fill="black" fill-opacity="0.1"/>
</g>
</svg>
