<svg width="14" height="9" viewBox="0 0 14 9" fill="none" xmlns="http://www.w3.org/2000/svg">
<path id="Combined Shape" fill-rule="evenodd" clip-rule="evenodd" d="M13.1071 2.87504C13.5953 2.38689 13.5953 1.59543 13.1071 1.10727C12.6189 0.619118 11.8275 0.619118 11.3393 1.10727L6.88421 5.5624L2.40229 1.08049C1.91414 0.592333 1.12268 0.592334 0.634525 1.08049C0.14637 1.56864 0.14637 2.3601 0.634525 2.84826L5.75079 7.96453C5.80668 8.0669 5.87796 8.16311 5.96461 8.24977C6.38499 8.67015 7.0303 8.72851 7.51314 8.42486C7.60755 8.37087 7.69642 8.30358 7.77702 8.22298C7.81983 8.18017 7.85889 8.13502 7.8942 8.08795L13.1071 2.87504Z" fill="#72E4F9"/>
</svg>
