<svg width="14" height="9" viewBox="0 0 14 9" fill="none" xmlns="http://www.w3.org/2000/svg">
<path id="Combined Shape" fill-rule="evenodd" clip-rule="evenodd" d="M13.1071 3.14311C13.5953 2.65495 13.5953 1.8635 13.1071 1.37534C12.6189 0.887185 11.8275 0.887185 11.3393 1.37534L6.88421 5.83047L2.40229 1.34856C1.91414 0.8604 1.12268 0.8604 0.634525 1.34856C0.14637 1.83671 0.14637 2.62817 0.634525 3.11632L5.75079 8.23259C5.80668 8.33497 5.87796 8.43118 5.96461 8.51783C6.38499 8.93821 7.0303 8.99658 7.51314 8.69293C7.60755 8.63894 7.69642 8.57165 7.77702 8.49105C7.81983 8.44823 7.85889 8.40308 7.8942 8.35601L13.1071 3.14311Z" fill="#72E4F9"/>
</svg>
