<svg width="141" height="41" viewBox="0 0 141 41" fill="none" xmlns="http://www.w3.org/2000/svg">
<g id="Group 33541">
<path id="Vector 7" d="M133.556 20.4795L140.278 33.5346C140.424 33.8177 140.5 34.1316 140.5 34.4501V38.5C140.5 39.6046 139.605 40.5 138.5 40.5H2.49998C1.39542 40.5 0.5 39.6046 0.5 38.5V18.5662C0.5 16.6324 2.97156 15.8244 4.11382 17.3848L14.8247 32.0168C15.5654 33.0286 17.0438 33.1171 17.8999 32.2008L29.7426 19.5257C30.5299 18.683 31.8648 18.679 32.6571 19.5169L43.9276 31.4351C44.9883 32.5567 46.8659 32.1048 47.3 30.6234L51.4091 16.6039L55.508 5.58297C56.1559 3.84077 58.6225 3.84755 59.2609 5.59328L68.6134 31.1695C69.2033 32.7827 71.4182 32.9509 72.2449 31.4452L80.6169 16.1961C81.3151 14.9245 83.0923 14.7958 83.9663 15.9536L89.7394 23.6011C90.1174 24.1018 90.7083 24.3961 91.3357 24.3961H103.921C104.758 24.3961 105.506 23.8755 105.796 23.0911L110.087 11.5141C110.742 9.74648 113.255 9.78366 113.857 11.5699L119.223 27.4795C119.705 28.9082 121.535 29.3101 122.571 28.2149L130.325 20.0203C131.273 19.0191 132.925 19.2539 133.556 20.4795Z" fill="url(#paint0_linear_281_10621)"/>
<path id="Vector 8" d="M140.5 33.9655L133.556 20.4795C132.925 19.2539 131.273 19.0191 130.325 20.0203L122.571 28.2149C121.535 29.3101 119.705 28.9082 119.223 27.4795L113.857 11.5699C113.255 9.78366 110.742 9.74648 110.087 11.5141L105.796 23.0911C105.506 23.8755 104.758 24.3961 103.921 24.3961H91.3357C90.7084 24.3961 90.1174 24.1018 89.7394 23.6011L83.9663 15.9536C83.0923 14.7958 81.3151 14.9245 80.6169 16.1961L72.2449 31.4452C71.4182 32.9509 69.2033 32.7827 68.6134 31.1695L59.2609 5.59328C58.6225 3.84755 56.1559 3.84077 55.508 5.58297L51.4091 16.6039L47.3001 30.6234C46.8659 32.1048 44.9883 32.5567 43.9276 31.4351L32.6571 19.5169C31.8648 18.679 30.5299 18.683 29.7426 19.5257L17.8999 32.2008C17.0438 33.1171 15.5654 33.0286 14.8247 32.0168L0.499997 12.4481" stroke="url(#paint1_linear_281_10621)"/>
</g>
<defs>
<linearGradient id="paint0_linear_281_10621" x1="70.5" y1="0.5" x2="66.654" y2="31.6451" gradientUnits="userSpaceOnUse">
<stop stop-color="#E84F51"/>
<stop offset="1" stop-color="#343950" stop-opacity="0"/>
</linearGradient>
<linearGradient id="paint1_linear_281_10621" x1="150.981" y1="34.7857" x2="-4.72509" y2="32.628" gradientUnits="userSpaceOnUse">
<stop stop-color="#E95353" stop-opacity="0"/>
<stop offset="0.479167" stop-color="#F55151"/>
<stop offset="1" stop-color="#EF5050" stop-opacity="0"/>
</linearGradient>
</defs>
</svg>
