<svg width="22" height="22" viewBox="0 0 22 22" fill="none" xmlns="http://www.w3.org/2000/svg">
<g id="Group">
<path id="Vector" d="M9.94579 3.1084H2.98795C2.46072 3.1084 1.95507 3.31784 1.58226 3.69066C1.20944 4.06347 1 4.56911 1 5.09635V19.012C1 19.5393 1.20944 20.0449 1.58226 20.4177C1.95507 20.7905 2.46072 21 2.98795 21H16.9036C17.4309 21 17.9365 20.7905 18.3093 20.4177C18.6821 20.0449 18.8916 19.5393 18.8916 19.012V12.0542" stroke="#B2C2CB" stroke-width="1.5" stroke-linecap="round" stroke-linejoin="round"/>
<path id="Vector_2" d="M17.4006 1.61758C17.7961 1.22215 18.3324 1 18.8916 1C19.4508 1 19.9871 1.22215 20.3826 1.61758C20.778 2.01301 21.0001 2.54932 21.0001 3.10854C21.0001 3.66776 20.778 4.20408 20.3826 4.59951L10.9398 14.0423L6.96387 15.0363L7.95784 11.0604L17.4006 1.61758Z" stroke="#B2C2CB" stroke-width="1.5" stroke-linecap="round" stroke-linejoin="round"/>
</g>
</svg>
