<svg width="141" height="31" viewBox="0 0 141 31" fill="none" xmlns="http://www.w3.org/2000/svg">
<g id="Group 33541">
<path id="Vector 9" opacity="0.5" d="M13.9356 14.0324L1.93091 17.5956C1.08213 17.8475 0.5 18.6275 0.5 19.5129V27.2792C0.5 28.3777 1.38597 29.2706 2.48444 29.2792L133.338 30.2973C134.259 30.3045 135.066 29.6816 135.292 28.7887L139.869 10.7285C140.189 9.46469 139.234 8.23723 137.93 8.23723H127.601C126.801 8.23723 126.077 8.71471 125.762 9.45086L121.569 19.2568C120.977 20.6411 119.126 20.8997 118.177 19.7305L108.553 7.86775C107.8 6.94014 106.408 6.87473 105.571 7.72773L92.8163 20.739C91.9923 21.5796 90.6242 21.5303 89.8628 20.6326L85.3178 15.274C84.9378 14.826 84.38 14.5677 83.7925 14.5677H79.8144C79.1233 14.5677 78.4811 14.2109 78.1161 13.624L71.6754 3.26901C70.887 2.00145 69.0381 2.01306 68.2657 3.29041L62.8804 12.1958C62.5182 12.7949 61.8691 13.1609 61.169 13.1609H58.5239C57.8125 13.1609 57.1546 13.5389 56.7962 14.1535L50.4348 25.0627C49.788 26.1719 48.2785 26.393 47.3408 25.5159L37.8996 16.6845C37.4238 16.2394 36.761 16.054 36.1233 16.1875L24.723 18.5755C24.2659 18.6713 23.7897 18.604 23.3769 18.3854L15.4407 14.1823C14.978 13.9373 14.4376 13.8834 13.9356 14.0324Z" fill="url(#paint0_linear_281_10638)"/>
<path id="Vector 10" d="M0.566406 18.4229L13.8699 14.3956C14.3747 14.2428 14.9194 14.2955 15.3855 14.5424L23.2911 18.7292C23.719 18.9558 24.2145 19.0195 24.6858 18.9085L36.098 16.2201C36.7493 16.0666 37.4342 16.2491 37.9229 16.7062L47.3409 25.5159C48.2785 26.393 49.7881 26.1719 50.4348 25.0627L56.7962 14.1535C57.1546 13.5389 57.8125 13.1609 58.5239 13.1609H61.169C61.8691 13.1609 62.5182 12.7949 62.8805 12.1958L68.2657 3.29041C69.0381 2.01306 70.887 2.00145 71.6754 3.26901L78.1161 13.624C78.4811 14.2109 79.1233 14.5677 79.8144 14.5677H83.7925C84.38 14.5677 84.9378 14.826 85.3178 15.274L89.8628 20.6326C90.6242 21.5303 91.9923 21.5796 92.8163 20.739L105.571 7.72772C106.408 6.87473 107.8 6.94014 108.553 7.86775L118.177 19.7305C119.126 20.8997 120.977 20.6411 121.569 19.2568L125.762 9.45086C126.077 8.71471 126.801 8.23723 127.601 8.23723H140.5" stroke="url(#paint1_linear_281_10638)" stroke-linejoin="round"/>
</g>
<defs>
<linearGradient id="paint0_linear_281_10638" x1="70.5" y1="0.499997" x2="72.668" y2="23.4317" gradientUnits="userSpaceOnUse">
<stop stop-color="#0ED2F6"/>
<stop offset="1" stop-color="#343950" stop-opacity="0"/>
</linearGradient>
<linearGradient id="paint1_linear_281_10638" x1="-9.6031" y1="22.7738" x2="140.432" y2="19.2683" gradientUnits="userSpaceOnUse">
<stop stop-color="#0ED2F6" stop-opacity="0"/>
<stop offset="0.479167" stop-color="#0ED2F6"/>
<stop offset="1" stop-color="#0ED2F6" stop-opacity="0"/>
</linearGradient>
</defs>
</svg>
