<svg width="21" height="22" viewBox="0 0 21 22" fill="none" xmlns="http://www.w3.org/2000/svg">
<path id="Vector" d="M15.492 3.12817L15.4937 3.22816L15.5937 3.22641L17.8156 3.18763C18.9824 3.16726 19.9542 4.10567 19.9745 5.27249L19.9939 6.38343C20.0425 9.1643 17.9882 11.4705 15.2985 11.8559L15.2413 11.8641L15.2198 11.9178C14.5611 13.5661 13.1097 14.8246 11.338 15.2156L11.2582 15.2332L11.2596 15.315L11.3197 18.7589L11.3214 18.8589L11.4214 18.8572L14.7543 18.799C15.3126 18.7892 15.7731 19.2339 15.7829 19.7923C15.7926 20.3507 15.3479 20.8112 14.7895 20.8209L5.90201 20.976C5.34368 20.9858 4.88316 20.5411 4.87341 19.9827C4.86366 19.4244 5.30839 18.9639 5.86672 18.9541L9.19955 18.8959L9.29953 18.8942L9.29779 18.7942L9.23767 15.3503L9.23624 15.2685L9.15582 15.2537C7.37159 14.9248 5.87712 13.7177 5.1613 12.0933L5.13798 12.0404L5.08051 12.0342C2.37895 11.743 0.245483 9.50986 0.196943 6.72899L0.177551 5.61805C0.157184 4.45123 1.0956 3.47948 2.26241 3.45911L4.4843 3.42033L4.58428 3.41858L4.58254 3.3186C4.56208 2.1467 5.4955 1.18012 6.6674 1.15966L13.333 1.04331C14.505 1.02286 15.4715 1.95628 15.492 3.12817ZM2.2977 5.48103L2.19772 5.48277L2.19947 5.58276L2.21886 6.6937C2.24484 8.18248 3.22872 9.4237 4.56301 9.88063L4.69788 9.92682L4.69539 9.78428L4.62132 5.54048L4.61957 5.4405L4.51959 5.44224L2.2977 5.48103ZM6.70269 3.18158L6.6027 3.18332L6.60445 3.28331L6.7208 9.94896C6.75376 11.8372 8.32526 13.3548 10.2135 13.3218C12.1018 13.2889 13.6194 11.7174 13.5864 9.82912L13.4701 3.16347L13.4683 3.06348L13.3683 3.06523L6.70269 3.18158ZM15.6048 9.59385L15.6073 9.73639L15.7405 9.68553C17.058 9.18231 17.998 7.9075 17.972 6.41872L17.9526 5.30778L17.9509 5.2078L17.8509 5.20954L15.629 5.24833L15.529 5.25007L15.5308 5.35006L15.6048 9.59385Z" fill="#0ED2F6" stroke="#2E333A" stroke-width="0.2"/>
</svg>
