<svg width="22" height="23" viewBox="0 0 22 23" fill="none" xmlns="http://www.w3.org/2000/svg">
<g id="Group">
<path id="Vector" d="M9.94579 3.37646H2.98795C2.46072 3.37646 1.95507 3.58591 1.58226 3.95872C1.20944 4.33154 1 4.83718 1 5.36442V19.2801C1 19.8073 1.20944 20.313 1.58226 20.6858C1.95507 21.0586 2.46072 21.2681 2.98795 21.2681H16.9036C17.4309 21.2681 17.9365 21.0586 18.3093 20.6858C18.6821 20.313 18.8916 19.8073 18.8916 19.2801V12.3223" stroke="#B2C2CB" stroke-width="1.5" stroke-linecap="round" stroke-linejoin="round"/>
<path id="Vector_2" d="M17.4006 1.88564C17.7961 1.49022 18.3324 1.26807 18.8916 1.26807C19.4508 1.26807 19.9871 1.49022 20.3826 1.88564C20.778 2.28107 21.0001 2.81739 21.0001 3.37661C21.0001 3.93583 20.778 4.47215 20.3826 4.86758L10.9398 14.3104L6.96387 15.3043L7.95784 11.3284L17.4006 1.88564Z" stroke="#B2C2CB" stroke-width="1.5" stroke-linecap="round" stroke-linejoin="round"/>
</g>
</svg>
