<svg width="30" height="31" viewBox="0 0 30 31" fill="none" xmlns="http://www.w3.org/2000/svg">
<path id="Vector" d="M18.5664 2.89447L18.425 2.75305L18.2836 2.89447L14.1031 7.07501L13.9616 7.21644L14.1031 7.35786L14.5678 7.82255C14.5678 7.82256 14.5678 7.82256 14.5678 7.82256C15.0301 8.28492 15.0301 9.03453 14.5678 9.49687L14.7092 9.63828L14.5678 9.49687C14.1055 9.95922 13.3558 9.95922 12.8935 9.49687L12.8935 9.49685L12.4287 9.03216L12.2873 8.89076L12.1459 9.03217L2.62641 18.5517L2.48498 18.6931L2.62641 18.8345L3.82312 20.0312L3.96095 20.169L4.10227 20.0348C5.80128 18.421 8.48722 18.4474 10.154 20.1142L10.2954 19.9728L10.154 20.1142C11.8207 21.7809 11.8471 24.4668 10.2333 26.1658L10.099 26.3071L10.2369 26.4449L11.4336 27.6417L11.575 27.7832L11.7164 27.6417L21.2359 18.1222L21.3773 17.9808L21.2359 17.8394L20.505 17.1084L20.505 17.1084C20.0426 16.646 20.0426 15.8964 20.505 15.4341L20.505 15.4341C20.9673 14.9718 21.717 14.9718 22.1793 15.4341L22.9103 16.1651L23.0517 16.3065L23.1931 16.1651L27.3737 11.9845L27.5151 11.8431L27.3737 11.7016L26.0598 10.3878L25.9525 10.2805L25.8202 10.355C24.1674 11.2854 22.0345 11.0469 20.6278 9.64024C19.2212 8.23361 18.9826 6.10063 19.9132 4.44782L19.9876 4.31558L19.8803 4.20827L18.5664 2.89447ZM20.2407 1.22016L20.3821 1.07875L20.2407 1.22017L22.415 3.39437C22.8773 3.85671 22.8773 4.60633 22.415 5.06867L22.415 5.06869L22.3022 5.18148C21.5332 5.95038 21.5332 7.19701 22.3022 7.96593C23.071 8.73484 24.3177 8.73482 25.0866 7.96594L25.0866 7.96592L25.1994 7.85311C25.6617 7.39078 26.4114 7.39078 26.8737 7.85311L27.0151 7.7117L26.8737 7.85312L29.048 10.0273C30.0507 11.0301 30.0507 12.656 29.0479 13.6588L13.3908 29.316C12.3879 30.3188 10.7621 30.3187 9.75927 29.316L7.58507 27.1418L7.44364 27.2832L7.58506 27.1417C7.12272 26.6794 7.12272 25.9298 7.58506 25.4675L7.44364 25.326L7.58506 25.4675L8.47965 24.5729L8.33823 24.4315L8.47966 24.5729C9.24854 23.8039 9.24856 22.5573 8.47964 21.7885C7.71073 21.0195 6.4641 21.0195 5.6952 21.7885L4.80062 22.6831C4.33828 23.1454 3.58865 23.1454 3.12631 22.6831L0.952105 20.5088L0.810681 20.6502L0.952098 20.5088C-0.0506994 19.5061 -0.0506994 17.8801 0.952098 16.8774L0.810681 16.736L0.952103 16.8774L16.6093 1.22017L16.4679 1.07875L16.6093 1.22016C17.612 0.217367 19.238 0.217367 20.2407 1.22016ZM16.0073 10.9364L16.0073 10.9364C16.4696 10.474 17.2193 10.474 17.6816 10.9364L19.0655 12.3203C19.5278 12.7826 19.5278 13.5323 19.0655 13.9946C18.6032 14.4569 17.8535 14.4569 17.3912 13.9946L16.0073 12.6107L16.0073 12.6106C15.5449 12.1483 15.5449 11.3987 16.0073 10.9364Z" fill="#B2C2CB" stroke="#2E333A" stroke-width="0.4"/>
</svg>
