<svg width="21" height="21" viewBox="0 0 21 21" fill="none" xmlns="http://www.w3.org/2000/svg">
<path id="Vector" d="M15.492 2.39648L15.4937 2.49647L15.5937 2.49472L17.8156 2.45594C18.9824 2.43557 19.9542 3.37398 19.9745 4.5408L19.9939 5.65174C20.0425 8.43261 17.9882 10.7388 15.2985 11.1242L15.2413 11.1324L15.2198 11.1861C14.5611 12.8344 13.1097 14.0929 11.338 14.4839L11.2582 14.5015L11.2596 14.5833L11.3197 18.0272L11.3214 18.1272L11.4214 18.1255L14.7543 18.0673C15.3126 18.0576 15.7731 18.5023 15.7829 19.0606C15.7926 19.619 15.3479 20.0795 14.7895 20.0892L5.90201 20.2443C5.34368 20.2541 4.88316 19.8094 4.87341 19.251C4.86366 18.6927 5.30839 18.2322 5.86672 18.2224L9.19955 18.1643L9.29953 18.1625L9.29779 18.0625L9.23767 14.6186L9.23624 14.5368L9.15582 14.522C7.37159 14.1931 5.87712 12.986 5.1613 11.3616L5.13798 11.3087L5.08051 11.3025C2.37895 11.0113 0.245483 8.77817 0.196943 5.9973L0.177551 4.88636C0.157184 3.71954 1.0956 2.74779 2.26241 2.72742L4.4843 2.68864L4.58428 2.68689L4.58254 2.58691C4.56208 1.41502 5.4955 0.448427 6.6674 0.427971L13.333 0.311622C14.505 0.291166 15.4715 1.22459 15.492 2.39648ZM2.2977 4.74934L2.19772 4.75108L2.19947 4.85107L2.21886 5.96201C2.24484 7.45079 3.22872 8.69201 4.56301 9.14894L4.69788 9.19513L4.69539 9.05259L4.62132 4.80879L4.61957 4.70881L4.51959 4.71055L2.2977 4.74934ZM6.70269 2.44989L6.6027 2.45163L6.60445 2.55162L6.7208 9.21727C6.75376 11.1055 8.32526 12.6231 10.2135 12.5902C12.1018 12.5572 13.6194 10.9857 13.5864 9.09743L13.4701 2.43178L13.4683 2.33179L13.3683 2.33354L6.70269 2.44989ZM15.6048 8.86216L15.6073 9.0047L15.7405 8.95384C17.058 8.45062 17.998 7.17581 17.972 5.68703L17.9526 4.57609L17.9509 4.47611L17.8509 4.47785L15.629 4.51664L15.529 4.51838L15.5308 4.61837L15.6048 8.86216Z" fill="#0ED2F6" stroke="#2E333A" stroke-width="0.2"/>
</svg>
