<svg width="21" height="21" viewBox="0 0 21 21" fill="none" xmlns="http://www.w3.org/2000/svg">
<path id="Vector" d="M16.3191 2.39648L16.3209 2.49647L16.4209 2.49472L18.6427 2.45594C19.8096 2.43557 20.7813 3.37398 20.8017 4.5408L20.8211 5.65174C20.8696 8.43261 18.8154 10.7388 16.1256 11.1242L16.0684 11.1324L16.047 11.1861C15.3883 12.8344 13.9368 14.0929 12.1652 14.4839L12.0853 14.5015L12.0867 14.5833L12.1468 18.0272L12.1486 18.1272L12.2486 18.1255L15.5814 18.0673C16.1398 18.0576 16.6003 18.5023 16.61 19.0606C16.6198 19.619 16.175 20.0795 15.6167 20.0892L6.72916 20.2443C6.17083 20.2541 5.7103 19.8094 5.70056 19.251C5.69081 18.6927 6.13554 18.2322 6.69387 18.2224L10.0267 18.1643L10.1267 18.1625L10.1249 18.0625L10.0648 14.6186L10.0634 14.5368L9.98296 14.522C8.19874 14.1931 6.70426 12.986 5.98844 11.3616L5.96513 11.3087L5.90765 11.3025C3.2061 11.0113 1.07263 8.77817 1.02409 5.9973L1.0047 4.88636C0.984333 3.71954 1.92274 2.74779 3.08956 2.72742L5.31144 2.68864L5.41143 2.68689L5.40968 2.58691C5.38923 1.41502 6.32265 0.448427 7.49455 0.427971L14.1602 0.311622C15.3321 0.291166 16.2987 1.22459 16.3191 2.39648ZM3.12485 4.74934L3.02487 4.75108L3.02661 4.85107L3.04601 5.96201C3.07199 7.45079 4.05587 8.69201 5.39016 9.14894L5.52503 9.19513L5.52254 9.05259L5.44847 4.80879L5.44672 4.70881L5.34674 4.71055L3.12485 4.74934ZM7.52984 2.44989L7.42985 2.45163L7.4316 2.55162L7.54795 9.21727C7.58091 11.1055 9.1524 12.6231 11.0407 12.5902C12.929 12.5572 14.4465 10.9857 14.4136 9.09743L14.2972 2.43178L14.2955 2.33179L14.1955 2.33354L7.52984 2.44989ZM16.432 8.86216L16.4345 9.0047L16.5677 8.95384C17.8852 8.45062 18.8251 7.17581 18.7992 5.68703L18.7798 4.57609L18.778 4.47611L18.678 4.47785L16.4562 4.51664L16.3562 4.51838L16.3579 4.61837L16.432 8.86216Z" fill="#E93D25" stroke="#2E333A" stroke-width="0.2"/>
</svg>
